<svg width="88" height="88" viewBox="0 0 88 88" fill="none" xmlns="http://www.w3.org/2000/svg">
<rect width="88" height="88" rx="16" fill="white"/>
<path d="M50.9012 26.3458L67.2502 53.6245C69.5693 57.4938 66.7885 62.4182 62.2847 62.4182H29.5866C25.0825 62.4182 22.3028 57.4938 24.6208 53.6245L40.9698 26.3458C43.22 22.5912 48.651 22.5912 50.9012 26.3458ZM34.8135 25.121L18.5178 52.3279C14.3053 59.3601 19.3598 68.3094 27.5451 68.3094H60.1371C68.3213 68.3094 73.3769 59.3601 69.1644 52.3279L52.8677 25.121C48.779 18.293 38.9029 18.293 34.8135 25.121Z" fill="#D6AD75"/>
<path d="M51.5077 36.3346L58.6015 48.1713C59.2514 49.2549 58.4723 50.6354 57.2103 50.6354H43.0221C41.7601 50.6354 40.981 49.2549 41.6309 48.1713L48.7246 36.3346C49.3553 35.2825 50.8771 35.2825 51.5077 36.3346ZM44.4261 32.0338L33.5535 50.1761C31.8791 52.9705 33.8872 56.5266 37.1388 56.5266H58.8855C62.1375 56.5266 64.1468 52.9705 62.472 50.1761L51.5986 32.0338C49.973 29.323 46.0518 29.323 44.4261 32.0338Z" fill="#D6AD75"/>
</svg>
