
<svg width="198" height="52" viewBox="0 0 198 52" fill="none" xmlns="http://www.w3.org/2000/svg">
<path d="M34.5367 6.76696L50.8857 34.0457C53.2048 37.915 50.424 42.8394 45.9202 42.8394H13.2221C8.71795 42.8394 5.93826 37.915 8.25625 34.0457L24.6053 6.76696C26.8555 3.01233 32.2865 3.01233 34.5367 6.76696ZM18.449 5.54211L2.15334 32.7491C-2.05919 39.7813 2.99532 48.7306 11.1806 48.7306H43.7726C51.9568 48.7306 57.0124 39.7813 52.7999 32.7491L36.5032 5.54211C32.4145 -1.28583 22.5384 -1.28583 18.449 5.54211Z" fill="#D6AD75"/>
<path d="M35.1432 16.7558L42.237 28.5925C42.8869 29.6761 42.1078 31.0566 40.8458 31.0566H26.6576C25.3956 31.0566 24.6165 29.6761 25.2664 28.5925L32.3601 16.7558C32.9908 15.7037 34.5126 15.7037 35.1432 16.7558ZM28.0616 12.455L17.189 30.5973C15.5146 33.3917 17.5227 36.9478 20.7743 36.9478H42.521C45.773 36.9478 47.7823 33.3917 46.1075 30.5973L35.2341 12.455C33.6085 9.74419 29.6873 9.74419 28.0616 12.455Z" fill="#D6AD75"/>
<path d="M67.1469 32.4561H72.4241C73.5191 32.4561 74.3751 32.1642 74.9928 31.5805C75.6098 30.9971 75.9193 30.2733 75.9193 29.409C75.9193 28.522 75.6219 27.7924 75.0277 27.2201C74.4338 26.6481 73.6005 26.3619 72.529 26.3619H67.1469V32.4561ZM72.0397 16.5555H67.1469V21.6341H71.795C72.7264 21.6341 73.4608 21.3885 73.9967 20.8985C74.5326 20.4081 74.8008 19.7898 74.8008 19.0424C74.8008 18.3414 74.5501 17.7523 74.0494 17.2736C73.5479 16.7954 72.8786 16.5555 72.0397 16.5555ZM76.9677 23.2798C78.5516 23.6772 79.769 24.4652 80.6196 25.6441C81.4699 26.8234 81.8953 28.2418 81.8953 29.8994C81.8953 32.0477 81.1378 33.8457 79.6235 35.293C78.1089 36.741 76.1166 37.4644 73.6475 37.4644H61.45V11.5821H73.0532C75.4526 11.5821 77.2938 12.2247 78.5751 13.5084C79.8799 14.7693 80.5321 16.2636 80.5321 17.9914C80.5321 19.1593 80.206 20.2327 79.5538 21.2135C78.9012 22.1943 78.0388 22.8832 76.9677 23.2798Z" fill="#29B56E"/>
<path d="M97.7622 37.8497C93.9879 37.8497 90.8299 36.6241 88.2907 34.1725C85.7511 31.6978 84.4811 28.5106 84.4811 24.611C84.4811 20.6882 85.7746 17.4661 88.3607 14.9443C90.97 12.3997 94.1277 11.1267 97.8323 11.1267C100.115 11.1267 102.236 11.5996 104.193 12.5455C106.15 13.491 107.723 14.7693 108.911 16.3806L105.136 20.2327C103.179 17.8749 100.849 16.6956 98.1467 16.6956C96.0025 16.6956 94.1856 17.443 92.6945 18.9373C91.2029 20.4316 90.4575 22.3112 90.4575 24.5757C90.4575 26.7946 91.1912 28.6385 92.6593 30.1093C94.1277 31.5805 95.9446 32.3161 98.1115 32.3161C100.908 32.3161 103.295 31.1254 105.276 28.7437L109.156 32.3859C107.944 34.0442 106.324 35.3689 104.298 36.3611C102.27 37.3536 100.092 37.8497 97.7622 37.8497Z" fill="#29B56E"/>
<path d="M123.974 37.8497C120.199 37.8497 117.042 36.6241 114.503 34.1725C111.963 31.6978 110.693 28.5106 110.693 24.611C110.693 20.6882 111.986 17.4661 114.573 14.9443C117.182 12.3997 120.339 11.1267 124.044 11.1267C126.327 11.1267 128.448 11.5996 130.405 12.5455C132.362 13.491 133.934 14.7693 135.122 16.3806L131.348 20.2327C129.391 17.8749 127.061 16.6956 124.359 16.6956C122.214 16.6956 120.397 17.443 118.906 18.9373C117.415 20.4316 116.669 22.3112 116.669 24.5757C116.669 26.7946 117.403 28.6385 118.871 30.1093C120.339 31.5805 122.156 32.3161 124.323 32.3161C127.119 32.3161 129.507 31.1254 131.488 28.7437L135.367 32.3859C134.155 34.0442 132.536 35.3689 130.51 36.3611C128.482 37.3536 126.303 37.8497 123.974 37.8497Z" fill="#29B56E"/>
<path d="M140.434 38.0248C139.549 38.0248 138.809 37.7326 138.215 37.1492C137.621 36.5658 137.324 35.8302 137.324 34.9428C137.324 34.0793 137.621 33.3551 138.215 32.7713C138.809 32.1879 139.549 31.8961 140.434 31.8961C141.273 31.8961 141.983 32.1932 142.566 32.7888C143.148 33.3839 143.44 34.1024 143.44 34.9428C143.44 35.8302 143.148 36.5658 142.566 37.1492C141.983 37.7326 141.273 38.0248 140.434 38.0248Z" fill="#29B56E"/>
<path d="M169.791 37.4644H162.697L156.196 27.6228L153.155 31.3003V37.4644H147.389V11.5821H153.155V23.1401L162.208 11.5821H169.198L159.971 23.21L169.791 37.4644Z" fill="#29B56E"/>
<path d="M191.145 37.4644H170.595V33.2266L182.932 16.9058H171.084V11.5821H190.76V16.0302L178.703 32.1411H191.145V37.4644Z" fill="#29B56E"/>
</svg>
